<svg xmlns="http://www.w3.org/2000/svg" viewBox="0 0 17.97 11.75"><defs><style>.cls-1{fill:#fff;}</style></defs><title>Fichier 5</title><g id="Calque_2" data-name="Calque 2"><g id="Menu"><g id="Users_3" data-name="Users 3"><path class="cls-1" d="M4,5.13A2.37,2.37,0,0,0,6.1,2.56C6.1,1.15,5.79,0,4,0S1.88,1.15,1.88,2.56A2.37,2.37,0,0,0,4,5.13Zm0,0"/><path class="cls-1" d="M8,8.94c0-2.47-.36-3.17-2.83-3.61A1.48,1.48,0,0,1,4,5.77a1.48,1.48,0,0,1-1.16-.44C.39,5.76.05,6.46,0,8.86c0,.2,0,.21,0,.18s0,.12,0,.26.59,1.18,4,1.18S8,9.3,8,9.3V9.11a1.7,1.7,0,0,1,0-.17Zm0,0"/></g><g id="Users_2" data-name="Users 2"><path class="cls-1" d="M14,5.13A2.37,2.37,0,0,0,16.1,2.56C16.1,1.15,15.79,0,14,0s-2.11,1.15-2.11,2.56A2.37,2.37,0,0,0,14,5.13Zm0,0"/><path class="cls-1" d="M18,8.94c0-2.47-.36-3.17-2.83-3.61A1.48,1.48,0,0,1,14,5.77a1.48,1.48,0,0,1-1.16-.44c-2.44.44-2.78,1.13-2.82,3.53,0,.2,0,.21,0,.18s0,.12,0,.26.59,1.18,4,1.18S18,9.3,18,9.3V9.11a1.7,1.7,0,0,1,0-.17Zm0,0"/></g><g id="Users1"><path class="cls-1" d="M9,6.12A2.49,2.49,0,0,0,11.2,3.43C11.2,1.94,10.88.74,9,.74S6.77,1.94,6.77,3.43A2.49,2.49,0,0,0,9,6.12Zm0,0"/><path class="cls-1" d="M13.17,10.12c0-2.59-.38-3.33-3-3.8A1.55,1.55,0,0,1,9,6.79a1.55,1.55,0,0,1-1.21-.46c-2.56.46-2.92,1.19-3,3.71,0,.21,0,.22,0,.19s0,.13,0,.27S5.42,11.75,9,11.75s4.19-1.24,4.19-1.24v-.2a1.78,1.78,0,0,1,0-.18Zm0,0"/></g></g></g></svg>