<svg xmlns="http://www.w3.org/2000/svg" viewBox="0 0 18.29 14.79"><defs><style>.cls-1{fill:#fff;}</style></defs><title>Fichier 2</title><g id="Calque_2" data-name="Calque 2"><g id="Menu"><path class="cls-1" d="M4.94,14.79H8.17v-3.3h1.94v3.3h3.23V0H4.94Zm4.79-13h1.94V3.68H9.73Zm0,3.12h1.94V6.81H9.73ZM9.73,8h1.94V9.93H9.73ZM6.61,1.74H8.56V3.68H6.61Zm0,3.12H8.56V6.81H6.61ZM6.61,8H8.56V9.93H6.61Zm0,0"/><path class="cls-1" d="M14.1,1.32V11.78h1.25v3h2.94V1.32Zm2.67,9H15V8.59h1.77Zm0-2.84H15V5.75h1.77Zm0-2.84H15V2.91h1.77Zm0,0"/><path class="cls-1" d="M0,14.79H2.94v-3H4.19V1.32H0ZM1.52,2.91H3.29V4.68H1.52Zm0,2.84H3.29V7.52H1.52Zm0,2.84H3.29v1.77H1.52Zm0,0"/></g></g></svg>