<svg xmlns="http://www.w3.org/2000/svg" viewBox="0 0 17.96 14.74"><defs><style>.cls-1{fill:#fff;}</style></defs><title>Fichier 3</title><g id="Calque_2" data-name="Calque 2"><g id="Menu"><path class="cls-1" d="M9.86,9v-.4a.88.88,0,0,0-1.76,0V9A.88.88,0,0,0,9.86,9Zm0,0"/><path class="cls-1" d="M10.47,9.52a1.55,1.55,0,0,1-3,0H1.43A2.47,2.47,0,0,1,.36,9.28v4a1.43,1.43,0,0,0,1.43,1.43H16.17a1.43,1.43,0,0,0,1.43-1.43v-4a2.5,2.5,0,0,1-1.07.24Zm0,0"/><path class="cls-1" d="M16.47,2.29H13A2.72,2.72,0,0,0,10.36,0H7.61A2.73,2.73,0,0,0,4.92,2.29H1.49A1.47,1.47,0,0,0,0,3.72V7A1.43,1.43,0,0,0,1.43,8.45h6a1.55,1.55,0,0,1,.48-1l0,0,.2-.16.08,0,.18-.09.15,0,.13,0a1.54,1.54,0,0,1,.62,0l.13,0,.15,0,.18.09.08,0,.2.16,0,0a1.56,1.56,0,0,1,.48,1h6A1.43,1.43,0,0,0,18,7V3.72a1.47,1.47,0,0,0-1.49-1.43ZM6.3,2.29a1.38,1.38,0,0,1,1.31-1h2.75a1.38,1.38,0,0,1,1.31,1Zm0,0"/></g></g></svg>