<svg xmlns="http://www.w3.org/2000/svg" viewBox="0 0 17.97 18.95"><defs><style>.cls-1{fill:#fff;}</style></defs><title>Fichier 7</title><g id="Calque_2" data-name="Calque 2"><g id="Menu"><path class="cls-1" d="M17.3,1.47H15.06V4.33A1.2,1.2,0,0,1,13.82,5.5H13a1.2,1.2,0,0,1-1.24-1.16V1.47H6.23V4.33A1.2,1.2,0,0,1,5,5.5H4.15A1.2,1.2,0,0,1,2.91,4.33V1.47H.67a.69.69,0,0,0-.67.7V18.24a.69.69,0,0,0,.67.7H17.3a.69.69,0,0,0,.68-.7V2.17a.69.69,0,0,0-.68-.7ZM17.06,18a.22.22,0,0,1-.21.22H1.13A.22.22,0,0,1,.91,18V8.05a.22.22,0,0,1,.21-.22H16.85a.22.22,0,0,1,.21.22Zm0,0"/><path class="cls-1" d="M4.15,4.66H5a.52.52,0,0,0,.56-.46V.46A.52.52,0,0,0,5,0H4.15a.52.52,0,0,0-.56.46V4.2a.52.52,0,0,0,.56.46Zm0,0"/><path class="cls-1" d="M13,4.66h.84a.52.52,0,0,0,.56-.46V.46A.52.52,0,0,0,13.82,0H13a.52.52,0,0,0-.56.46V4.2a.52.52,0,0,0,.56.46Zm0,0"/><path class="cls-1" d="M12.85,9.2a.36.36,0,0,0-.53,0l-4.4,4.56L5.65,11.4a.36.36,0,0,0-.53,0l-.8.82a.4.4,0,0,0,0,.55l3.32,3.47a.36.36,0,0,0,.53,0l5.46-5.66a.4.4,0,0,0,0-.55Zm0,0"/></g></g></svg>