<svg xmlns="http://www.w3.org/2000/svg" xmlns:xlink="http://www.w3.org/1999/xlink" viewBox="0 0 17.97 18.9"><defs><style>.cls-1{fill:none;}.cls-2{clip-path:url(#clip-path);}.cls-3{fill:#fff;}</style><clipPath id="clip-path" transform="translate(0)"><rect class="cls-1" y="0.01" width="17.97" height="18.95"/></clipPath></defs><title>Fichier 9</title><g id="Calque_2" data-name="Calque 2"><g id="Menu"><g class="cls-2"><path class="cls-3" d="M17.89,17.84,9.53.37a.59.59,0,0,0-1.09,0L.08,17.84a.81.81,0,0,0,0,.71.61.61,0,0,0,.54.35H17.35a.61.61,0,0,0,.54-.35.81.81,0,0,0,0-.71ZM1.67,17.47,9,2.2l7.31,15.27Zm0,0" transform="translate(0)"/></g><path class="cls-3" d="M8.2,7.32v5.17a.84.84,0,0,0,.78.9.84.84,0,0,0,.78-.9V7.32A.84.84,0,0,0,9,6.42a.84.84,0,0,0-.78.9Zm0,0" transform="translate(0)"/><path class="cls-3" d="M9,14.31A1,1,0,0,0,9,16.2a1,1,0,0,0,0-1.89Zm0,0" transform="translate(0)"/></g></g></svg>