<svg xmlns="http://www.w3.org/2000/svg" viewBox="0 0 17.97 13.53"><defs><style>.cls-1{fill:#fff;}</style></defs><title>Fichier 4</title><g id="Calque_2" data-name="Calque 2"><g id="Menu"><path class="cls-1" d="M17.08,13.29h-12a.9.9,0,0,1,0-1.79h12a.9.9,0,0,1,0,1.79Zm0,0"/><path class="cls-1" d="M17.08,7.66h-12a.9.9,0,0,1,0-1.79h12a.9.9,0,0,1,0,1.79Zm0,0"/><path class="cls-1" d="M17.08,2h-12a.9.9,0,0,1,0-1.79h12a.9.9,0,0,1,0,1.79Zm0,0"/><path class="cls-1" d="M2.41,1.2A1.2,1.2,0,1,1,1.2,0a1.2,1.2,0,0,1,1.2,1.2Zm0,0"/><path class="cls-1" d="M2.41,6.76a1.2,1.2,0,1,1-1.2-1.2,1.2,1.2,0,0,1,1.2,1.2Zm0,0"/><path class="cls-1" d="M2.41,12.32a1.2,1.2,0,1,1-1.2-1.2,1.2,1.2,0,0,1,1.2,1.2Zm0,0"/></g></g></svg>