<svg xmlns="http://www.w3.org/2000/svg" viewBox="0 0 155.18 177.69"><defs><style>.cls-1{fill:#e41d21;}</style></defs><title>Fichier 20</title><g id="Calque_2" data-name="Calque 2"><g id="Entreprise"><path class="cls-1" d="M64.35,42l30.3,71.91H74.8L65.74,91H43.55ZM47.59,0H0V113.88ZM81.11,0h47.57V113.88Zm40.72,159.4c0-4.2-1.19-7.14-3.55-7.14-2.69,0-3.83,3.94-3.92,7.14h7.47Zm-7.5,5.26c.09,5.41,2.93,7.17,6.46,7.17a15.9,15.9,0,0,0,5.57-1l1,5.35a21.72,21.72,0,0,1-7.94,1.38c-8,0-12.34-5.45-12.34-14.77,0-10,5.05-16,11.66-16,6.38,0,9.91,5.31,9.91,14a26.53,26.53,0,0,1-.21,4l-14.12,0Zm-25.11,1.87a6.25,6.25,0,0,0,.29,1.91c.75,2.5,2,3.12,3,3.12,2.88,0,4-3.64,4-9.47,0-5.31-1.23-9-4.07-9-1.41,0-2.6,1.53-3,3.18a8.23,8.23,0,0,0-.28,1.88v8.35Zm-7.44-31.68h7.44v15.58h.12a7,7,0,0,1,6.25-3.61c5.61,0,8.42,6.37,8.42,14.71,0,10.53-4.2,16.17-9.64,16.17-2.59,0-4.32-1.15-5.88-4.06h-.16l-.41,3.58H81.54c.11-2.48.25-5.87.25-8.55V134.85ZM66.6,172c2.84,0,3.54-5.35,3.54-9.78,0-4.21-.7-9.7-3.67-9.7-3.14,0-3.8,5.49-3.8,9.7,0,5.08.83,9.78,3.86,9.78h.06Zm-.14,5.7c-6.85,0-11.15-5.5-11.15-15.35,0-10.75,5.52-15.53,11.32-15.53,6.76,0,11,5.77,11,15.35,0,12.31-6.64,15.52-11.11,15.52h-.06ZM43.68,158.78a9.93,9.93,0,0,0-.11-1.78c-.29-2-1.37-3.87-3.12-3.87-3,0-4.09,4.31-4.09,9.35,0,5.79,1.57,9.09,4,9.09,1.11,0,2.38-.57,3.07-3a5.93,5.93,0,0,0,.26-1.89v-7.89Zm7.44-23.93v33.81c0,2.68.14,6,.25,8.55H44.94l-.42-3.44h-.15a7.16,7.16,0,0,1-6.23,3.92c-6.15,0-9.2-6.79-9.2-15.36,0-10.44,4.55-15.52,9.51-15.52a5.27,5.27,0,0,1,5.12,3.11h.13V134.85h7.43ZM17.28,161.46l-1.51-8.94c-.43-2.58-1-6.6-1.4-9.39h-.16c-.44,2.81-1.06,7-1.51,9.41l-1.62,8.92h6.2Zm-7,5.82-2,9.92H1.06l9-41.27H19l8.21,41.27H19.9L18,167.29ZM144.55,9h1.08C147,9,148,8.53,148,7.37c0-.88-.64-1.69-2.33-1.69a9.47,9.47,0,0,0-1.17,0V9Zm0,5.66h-1.81v-10a18.27,18.27,0,0,1,3-.28,5.28,5.28,0,0,1,3.25.81,2.48,2.48,0,0,1,.88,2.09A2.43,2.43,0,0,1,148,9.62v.08c.88.16,1.44,1,1.64,2.46a8.74,8.74,0,0,0,.6,2.49h-1.85a7.78,7.78,0,0,1-.65-2.57,1.83,1.83,0,0,0-2.12-1.69h-1v4.26ZM146.19,1.9A7.33,7.33,0,0,0,139,9.41a7.2,7.2,0,1,0,14.38,0,7.3,7.3,0,0,0-7.15-7.51h0Zm0-1.53a9,9,0,0,1,9,9,9,9,0,1,1-18.06.07s0,0,0-.07a9,9,0,0,1,9.08-9h0Z"/></g></g></svg>