<svg xmlns="http://www.w3.org/2000/svg" viewBox="0 0 31.75 35.28"><defs><style>.cls-1{fill:#fff;}</style></defs><title>Fichier 12</title><g id="Calque_2" data-name="Calque 2"><g id="Fiche_Projet"><path class="cls-1" d="M10.58,15.88H7.06V19.4h3.53Zm7.06,0H14.11V19.4h3.53Zm7.06,0H21.17V19.4h3.53ZM28.22,3.53H26.46V0H22.93V3.53H8.82V0H5.29V3.53H3.53A3.51,3.51,0,0,0,0,7.06L0,31.75a3.53,3.53,0,0,0,3.53,3.53H28.22a3.54,3.54,0,0,0,3.53-3.53V7.06A3.54,3.54,0,0,0,28.22,3.53Zm0,28.22H3.53V12.35H28.22Z"/></g></g></svg>