<svg xmlns="http://www.w3.org/2000/svg" viewBox="0 0 18.95 15.32"><defs><style>.cls-1{fill:#1795a6;}</style></defs><title>Fichier 10</title><g id="Calque_2" data-name="Calque 2"><g id="Entreprise"><path class="cls-1" d="M5.12,15.32H8.47V11.9h2v3.42h3.35V0H5.12Zm5-13.52h2v2h-2Zm0,3.23h2v2h-2Zm0,3.23h2v2h-2ZM6.85,1.81h2v2h-2ZM6.85,5h2v2h-2Zm0,3.23h2v2h-2Zm0,0"/><path class="cls-1" d="M14.61,1.37V12.21H15.9v3.12h3V1.37Zm2.76,9.36H15.54V8.9h1.83Zm0-2.94H15.54V6h1.83Zm0-2.94H15.54V3h1.83Zm0,0"/><path class="cls-1" d="M0,15.32H3V12.21H4.34V1.37H0ZM1.58,3H3.41V4.85H1.58ZM1.58,6H3.41V7.79H1.58Zm0,2.94H3.41v1.83H1.58Zm0,0"/></g></g></svg>