<svg xmlns="http://www.w3.org/2000/svg" viewBox="0 0 19.18 13.64"><defs><style>.cls-1{fill:#1795a6;}</style></defs><title>Fichier 12</title><g id="Calque_2" data-name="Calque 2"><g id="Entreprise"><path class="cls-1" d="M15.53,10.53a.31.31,0,0,1-.21-.08L11.76,7.11a.31.31,0,0,1,0-.44.31.31,0,0,1,.44,0L15.74,10a.31.31,0,0,1-.21.53Zm0,0"/><path class="cls-1" d="M3.65,10.53A.31.31,0,0,1,3.44,10L7,6.66a.31.31,0,0,1,.43.45L3.86,10.45a.3.3,0,0,1-.21.08Zm0,0"/><path class="cls-1" d="M17.64,13.64H1.55A1.55,1.55,0,0,1,0,12.09V1.55A1.55,1.55,0,0,1,1.55,0H17.64a1.55,1.55,0,0,1,1.55,1.55V12.09a1.55,1.55,0,0,1-1.55,1.55ZM1.55.62a.93.93,0,0,0-.93.93V12.09a.93.93,0,0,0,.93.93H17.64a.93.93,0,0,0,.93-.93V1.55a.93.93,0,0,0-.93-.93Zm0,0"/><path class="cls-1" d="M9.59,8.37A1.72,1.72,0,0,1,8.46,8L.51,1A.31.31,0,1,1,.92.57L8.86,7.5a1.16,1.16,0,0,0,1.46,0L18.25.58a.31.31,0,0,1,.44,0,.31.31,0,0,1,0,.44L10.73,8a1.72,1.72,0,0,1-1.14.41Zm0,0"/></g></g></svg>