<svg xmlns="http://www.w3.org/2000/svg" viewBox="0 0 19.14 26.36"><defs><style>.cls-1{fill:#008eab;}</style></defs><title>icon mdp</title><g id="Calque_2" data-name="Calque 2"><g id="Calque_1-2" data-name="Calque 1"><path class="cls-1" d="M9.57,14.25a2.62,2.62,0,0,0-1.8,4.52v2.36a1.8,1.8,0,1,0,3.6,0V18.76a2.62,2.62,0,0,0-1.8-4.52Zm.93,3.6a1.25,1.25,0,0,0-.39.9v2.38a.53.53,0,0,1-1.07,0V18.75a1.25,1.25,0,0,0-.39-.9,1.34,1.34,0,0,1-.42-1,1.35,1.35,0,0,1,2.7,0A1.34,1.34,0,0,1,10.5,17.84Z"/><path class="cls-1" d="M17.24,10.81h-1.9v-5a5.77,5.77,0,1,0-11.54,0v5H1.9A1.9,1.9,0,0,0,0,12.71V24.46a1.9,1.9,0,0,0,1.9,1.9H17.24a1.9,1.9,0,0,0,1.9-1.9V12.71A1.9,1.9,0,0,0,17.24,10.81Zm-12.17-5a4.5,4.5,0,1,1,9,0v5h-9ZM17.88,24.46h0a.63.63,0,0,1-.63.63H1.9a.63.63,0,0,1-.63-.63V12.71a.63.63,0,0,1,.63-.63H17.24a.63.63,0,0,1,.63.63Z"/></g></g></svg>