<svg xmlns="http://www.w3.org/2000/svg" viewBox="0 0 34.77 22.74"><defs><style>.cls-1{fill:#fff;}</style></defs><title>Fichier 13</title><g id="Calque_2" data-name="Calque 2"><g id="Fiche_Projet"><g id="Users1"><path class="cls-1" d="M6.89,8.87c2,0,3.65-2,3.65-4.43S10,0,6.89,0,3.24,2,3.24,4.43,4.88,8.87,6.89,8.87Zm0,0"/><path class="cls-1" d="M13.78,15.46c-.07-4.27-.62-5.48-4.89-6.25a2.56,2.56,0,0,1-2,.76,2.56,2.56,0,0,1-2-.76C.68,10,.09,11.17,0,15.32c0,.34,0,.36,0,.32s0,.21,0,.45c0,0,1,2,6.89,2s6.89-2,6.89-2c0-.15,0-.26,0-.33a2.94,2.94,0,0,1,0-.3Zm0,0"/></g><g id="Users1-2" data-name="Users1"><path class="cls-1" d="M27.88,9c2,0,3.65-2,3.65-4.43S31,.14,27.88.14s-3.65,2-3.65,4.43S25.86,9,27.88,9Zm0,0"/><path class="cls-1" d="M34.77,15.6c-.07-4.27-.62-5.48-4.89-6.25a2.56,2.56,0,0,1-2,.76,2.56,2.56,0,0,1-2-.76c-4.22.76-4.81,2-4.89,6.11,0,.34,0,.36,0,.32s0,.21,0,.45c0,0,1,2,6.89,2s6.89-2,6.89-2c0-.15,0-.26,0-.33a2.94,2.94,0,0,1,0-.3Zm0,0"/></g><g id="Users1-3" data-name="Users1"><path class="cls-1" d="M17.44,13.47c2,0,3.65-2,3.65-4.43S20.55,4.6,17.44,4.6s-3.65,2-3.65,4.43,1.63,4.43,3.65,4.43Zm0,0"/><path class="cls-1" d="M24.33,20.06c-.07-4.27-.62-5.48-4.89-6.25a2.56,2.56,0,0,1-2,.76,2.56,2.56,0,0,1-2-.76c-4.22.76-4.81,2-4.89,6.11,0,.34,0,.36,0,.32s0,.21,0,.45c0,0,1,2,6.89,2s6.89-2,6.89-2c0-.15,0-.26,0-.33a2.94,2.94,0,0,1,0-.3Zm0,0"/></g></g></g></svg>