<svg xmlns="http://www.w3.org/2000/svg" viewBox="0 0 18.95 18.9"><defs><style>.cls-1{fill:#1795a6;}</style></defs><title>Fichier 13</title><g id="Calque_2" data-name="Calque 2"><g id="Entreprise"><path class="cls-1" d="M18.52,15,15.6,12a1.53,1.53,0,0,0-2.15,0L12,13.54l-.29-.16a14.7,14.7,0,0,1-3.55-2.56A14.72,14.72,0,0,1,5.56,7.26L5.41,7l1-1,.49-.49a1.52,1.52,0,0,0,0-2.15L4,.42a1.52,1.52,0,0,0-2.15,0L1,1.29l0,0a4.78,4.78,0,0,0-.68,1.2,4.93,4.93,0,0,0-.3,1.22c-.39,3.2,1.08,6.13,5,10.1,5.49,5.49,9.92,5.08,10.11,5.05a4.94,4.94,0,0,0,1.22-.31,4.72,4.72,0,0,0,1.19-.68l0,0,.84-.82a1.53,1.53,0,0,0,0-2.15Zm0,0"/></g></g></svg>