<svg xmlns="http://www.w3.org/2000/svg" viewBox="0 0 19.55 23.54"><defs><style>.cls-1{fill:#008eab;}</style></defs><title>icon user</title><g id="Calque_2" data-name="Calque 2"><g id="Calque_1-2" data-name="Calque 1"><path class="cls-1" d="M13.85,13.81l-.06,0-.44-.18-.49-.18-.4-.12-.62-.16-.22,0h0L11.21,13h-.08l-.32,0-.37,0a10,10,0,0,0-1.37,0H8.72L8.3,13h0L8,13.08l-.31.06-.59.15-.45.14-.1,0c-.3.11-.6.23-.89.36l-.08,0h0A9.81,9.81,0,0,0,0,22.69c0,.09,0,.17,0,.26l0,.59H19.51l0-.59c0-.09,0-.17,0-.26A9.8,9.8,0,0,0,13.85,13.81ZM1,22.58A8.85,8.85,0,0,1,6,14.72l.1,0h0c.24-.11.48-.21.73-.29l.08,0,.41-.13.53-.14L8.15,14l.23,0h0l.41-.06.31,0a8.38,8.38,0,0,1,1.27,0l.3,0,.24,0,.11,0,.34.06h.05l.19,0,.56.14.36.11.44.16.41.18h0a8.84,8.84,0,0,1,5.15,7.91H1ZM7.42,11.71l.22.08.16.06.18.06a6.05,6.05,0,0,0,1.77.28h0a6.06,6.06,0,0,0,.62,0l.2,0,.15,0,.26,0,.18,0,.16,0,.24-.06.15-.05.13,0,.28-.11.11-.05,0,0,.39-.19.08,0c.14-.08.29-.17.43-.26l.22-.16.24-.19a6,6,0,0,0,2.21-4.64V6.09A6.09,6.09,0,0,0,3.71,5.71v.08c0,.1,0,.2,0,.3A6.08,6.08,0,0,0,7.42,11.71ZM4.66,5.86V5.77A5.14,5.14,0,0,1,14.93,6V6.1a5.14,5.14,0,0,1-1.87,4l-.23.17-.17.13-.36.22-.07,0-.32.15-.13.06-.22.08L11.4,11l-.09,0-.18,0-.19,0-.12,0-.19,0-.18,0-.14,0-.48,0h0A5.12,5.12,0,0,1,8.26,11l-.13,0L8,10.89l-.16-.06A5.13,5.13,0,0,1,4.65,6.09C4.65,6,4.65,5.93,4.66,5.86Z"/></g></g></svg>