<svg xmlns="http://www.w3.org/2000/svg" viewBox="0 0 30.87 19.3"><defs><style>.cls-1{fill:#1795a6;}</style></defs><title>Fichier 14</title><g id="Calque_2" data-name="Calque 2"><g id="Entreprise"><path class="cls-1" d="M15.44,0A17.29,17.29,0,0,0,0,9.65a17.17,17.17,0,0,0,30.87,0A17.29,17.29,0,0,0,15.44,0ZM23,5.12a14.68,14.68,0,0,1,4.51,4.53A14.68,14.68,0,0,1,23,14.18a14.14,14.14,0,0,1-15.22,0A14.68,14.68,0,0,1,3.32,9.65,14.68,14.68,0,0,1,7.83,5.12l.36-.22a7.72,7.72,0,1,0,14.51,0l.36.22ZM15.44,6.57a2.89,2.89,0,1,1-2.89-2.89,2.89,2.89,0,0,1,2.89,2.89Zm0,0"/></g></g></svg>